<svg id="logo" xmlns="http://www.w3.org/2000/svg" viewBox="0 0 50 60"><path d="M25,0a14.22,14.22,0,0,0,5.12,3.78,17,17,0,0,0,4.16,1.4,13,13,0,0,0,3.18.17,24.31,24.31,0,0,0,4.81-.73c1.23-.32,2.44-.73,3.66-1.12a2,2,0,0,1,1.43,0,1.65,1.65,0,0,1,1,1.77c-.18,1.39-.36,2.78-.5,4.17s-.3,2.89-.38,4.33a37.15,37.15,0,0,0,0,4.22A25.75,25.75,0,0,0,48,21.37c.46,2.26,1,4.5,1.4,6.76.25,1.4.39,2.83.5,4.25a30.55,30.55,0,0,1,0,3.45,17.59,17.59,0,0,1-2.18,8.08,15.15,15.15,0,0,1-5.47,5.46A26.53,26.53,0,0,1,35.92,52c-1.09.32-2.21.6-3.28,1a18.66,18.66,0,0,0-5,2.77c-.88.66-1.7,1.41-2.55,2.12L25,58c-.47-.41-.91-.82-1.38-1.21A22.18,22.18,0,0,0,17.28,53c-1.05-.38-2.15-.65-3.22-1a25.25,25.25,0,0,1-7.13-3.14A14.77,14.77,0,0,1,.51,39.39a24.07,24.07,0,0,1-.49-4,32.48,32.48,0,0,1,.27-5.31C.58,27.7,1.1,25.33,1.62,23c.3-1.37.63-2.73.83-4.11a21.67,21.67,0,0,0,.14-3c0-.73,0-1.47-.1-2.21-.08-1-.16-2-.26-3s-.2-2-.31-3c-.09-.75-.17-1.5-.28-2.24a1.64,1.64,0,0,1,1.77-2,2.35,2.35,0,0,1,.66.14A29.73,29.73,0,0,0,9.85,5.06,21.69,21.69,0,0,0,14,5.38a13.11,13.11,0,0,0,4.14-.89A17.73,17.73,0,0,0,23.73,1.3C24.18.9,24.58.44,25,0Zm0,56.38.06,0a1.4,1.4,0,0,1,.15-.24c.33-.31.65-.62,1-.9a22,22,0,0,1,6-3.37c1.11-.42,2.27-.72,3.4-1.08a25.29,25.29,0,0,0,7-3.32,13.82,13.82,0,0,0,4.51-5.09A16.81,16.81,0,0,0,48.77,36a20.75,20.75,0,0,0,0-3.78c-.16-1.38-.3-2.78-.56-4.15-.4-2.19-.92-4.36-1.34-6.55A27.33,27.33,0,0,1,46.3,18c-.09-1.23,0-2.48,0-3.72,0-.54,0-1.09.09-1.63.09-1.08.18-2.16.29-3.24.09-.84.23-1.67.33-2.51a14.13,14.13,0,0,0,.1-1.45.67.67,0,0,0-.77-.71,6.9,6.9,0,0,0-1.27.3,31.79,31.79,0,0,1-8,1.43,13.06,13.06,0,0,1-4.56-.57,22.44,22.44,0,0,1-7.21-3.86c-.34-.27-.22-.27-.56,0a22.64,22.64,0,0,1-6.5,3.64,12.86,12.86,0,0,1-3.45.77,22,22,0,0,1-4.37-.21,32.93,32.93,0,0,1-4.91-1C5,5.08,4.47,4.89,4,4.76a.8.8,0,0,0-1.09.77,1.93,1.93,0,0,0,0,.48c.13,1,.28,2,.4,3s.21,2,.29,3,.11,1.88.15,2.82a23,23,0,0,1-.34,5.62c-.44,2.18-.91,4.36-1.36,6.54a40.14,40.14,0,0,0-.84,6.36,21.37,21.37,0,0,0,.33,5.11,14.47,14.47,0,0,0,1.86,4.92,15.2,15.2,0,0,0,5.46,5.11A26.24,26.24,0,0,0,14.89,51a27.21,27.21,0,0,1,4.86,1.78,18.91,18.91,0,0,1,5.16,3.57A.2.2,0,0,0,25,56.38Z" transform="translate(0)" style="fill:red"/><path d="M29,60a1.78,1.78,0,1,1,0-3.55A1.78,1.78,0,1,1,29,60Zm0-3.29a1.49,1.49,0,0,0-1.49,1.52A1.51,1.51,0,0,0,29,59.75a1.52,1.52,0,0,0,0-3Z" transform="translate(0)" style="fill:red"/><path d="M25,56.38a.2.2,0,0,1-.07-.06,18.91,18.91,0,0,0-5.16-3.57A27.21,27.21,0,0,0,14.89,51a26.24,26.24,0,0,1-6.07-2.53,15.2,15.2,0,0,1-5.46-5.11A14.47,14.47,0,0,1,1.5,38.41a21.37,21.37,0,0,1-.33-5.11A40.14,40.14,0,0,1,2,26.94c.45-2.18.92-4.36,1.36-6.54a23,23,0,0,0,.34-5.62c0-.94-.08-1.88-.15-2.82s-.18-2-.29-3S3,7,2.87,6a1.93,1.93,0,0,1,0-.48A.8.8,0,0,1,4,4.76c.51.13,1,.32,1.51.47a32.93,32.93,0,0,0,4.91,1,22,22,0,0,0,4.37.21,12.86,12.86,0,0,0,3.45-.77,22.64,22.64,0,0,0,6.5-3.64c.34-.27.22-.27.56,0a22.44,22.44,0,0,0,7.21,3.86A13.06,13.06,0,0,0,37,6.48a31.79,31.79,0,0,0,8-1.43,6.9,6.9,0,0,1,1.27-.3.67.67,0,0,1,.77.71A14.13,14.13,0,0,1,47,6.91c-.1.84-.24,1.67-.33,2.51-.11,1.08-.2,2.16-.29,3.24-.05.54-.09,1.09-.09,1.63,0,1.24-.08,2.49,0,3.72a27.33,27.33,0,0,0,.53,3.48c.42,2.19.94,4.36,1.34,6.55.26,1.37.4,2.77.56,4.15a20.75,20.75,0,0,1,0,3.78,16.81,16.81,0,0,1-1.65,6.46,13.82,13.82,0,0,1-4.51,5.09,25.29,25.29,0,0,1-7,3.32c-1.13.36-2.29.66-3.4,1.08a22,22,0,0,0-6,3.37c-.35.28-.67.59-1,.9a1.4,1.4,0,0,0-.15.24Zm0-53.7-.19.14a23.48,23.48,0,0,1-6.2,3.42,14,14,0,0,1-3.6.85A19.48,19.48,0,0,1,11.47,7a27.53,27.53,0,0,1-4.16-.67c-1.09-.27-2.16-.61-3.24-.91-.53-.15-.64-.06-.56.49.13,1,.28,2,.39,3s.21,2,.29,3c.07.84.1,1.68.15,2.51a26,26,0,0,1-.47,6.82c-.55,2.67-1.1,5.34-1.62,8a29.46,29.46,0,0,0-.46,4.5,21,21,0,0,0,.3,4.34,14.22,14.22,0,0,0,1.56,4.48,14,14,0,0,0,5,5,26.38,26.38,0,0,0,7.15,3,23.66,23.66,0,0,1,8.49,4.29c.26.2.49.42.74.63.17-.15.33-.31.5-.45a23.06,23.06,0,0,1,6.66-3.79c1.08-.4,2.2-.68,3.3-1A24.4,24.4,0,0,0,42.18,47a13.19,13.19,0,0,0,4.52-5.19,17,17,0,0,0,1.47-6.73,28.68,28.68,0,0,0-.49-6.2c-.36-2-.79-3.92-1.19-5.88a34,34,0,0,1-.87-5.42,46.61,46.61,0,0,1,.13-5.15q.11-1.37.24-2.73c.1-.89.22-1.78.33-2.67.06-.49.11-1,.16-1.47,0-.16-.07-.23-.23-.21a1.25,1.25,0,0,0-.19,0c-.64.2-1.28.41-1.92.59a31.83,31.83,0,0,1-6.92,1.12,13.64,13.64,0,0,1-3.66-.26A21,21,0,0,1,27,4.07C26.31,3.63,25.65,3.15,25,2.68Z" transform="translate(0)" style="fill:#fff"/><path d="M29,56.71a1.52,1.52,0,0,1,0,3,1.51,1.51,0,0,1-1.45-1.52A1.49,1.49,0,0,1,29,56.71Zm-.68.5v2h.24c0-.22,0-.42,0-.62s0-.24.1-.26a.28.28,0,0,1,.38.13c.11.2.25.39.36.6s.2.19.38.13l-.26-.43-.24-.41.08,0a.49.49,0,0,0,.41-.52.47.47,0,0,0-.42-.53C29,57.22,28.68,57.23,28.32,57.21Z" transform="translate(0)" style="fill:#fff"/><path d="M25,2.68c.69.47,1.35.95,2.05,1.39a21,21,0,0,0,6.55,2.79,13.64,13.64,0,0,0,3.66.26A31.83,31.83,0,0,0,44.14,6c.64-.18,1.28-.39,1.92-.59a1.25,1.25,0,0,1,.19,0c.16,0,.24,0,.23.21,0,.49-.1,1-.16,1.47-.11.89-.23,1.78-.33,2.67s-.17,1.82-.24,2.73a46.61,46.61,0,0,0-.13,5.15A34,34,0,0,0,46.49,23c.4,2,.83,3.91,1.19,5.88a28.68,28.68,0,0,1,.49,6.2,17,17,0,0,1-1.47,6.73A13.19,13.19,0,0,1,42.18,47a24.4,24.4,0,0,1-6.73,3.17c-1.1.35-2.22.63-3.3,1A23.06,23.06,0,0,0,25.49,55c-.17.14-.33.3-.5.45-.25-.21-.48-.43-.74-.63a23.66,23.66,0,0,0-8.49-4.29,26.38,26.38,0,0,1-7.15-3,14,14,0,0,1-5-5,14.22,14.22,0,0,1-1.56-4.48,21,21,0,0,1-.3-4.34,29.46,29.46,0,0,1,.46-4.5c.52-2.68,1.07-5.35,1.62-8a26,26,0,0,0,.47-6.82c0-.83-.08-1.67-.15-2.51-.08-1-.17-2-.29-3s-.26-2-.39-2.95c-.08-.55,0-.64.56-.49,1.08.3,2.15.64,3.24.91A27.53,27.53,0,0,0,11.47,7a19.48,19.48,0,0,0,3.5.06,14,14,0,0,0,3.6-.85,23.48,23.48,0,0,0,6.2-3.42Zm9.33,37.55a4.61,4.61,0,0,0,1.63-.95s0,0,0,0l-.08-.07a.66.66,0,0,1-.34-.64c0-.65,0-1.3,0-1.95,0-1.79,0-3.58,0-5.38a6,6,0,0,1,.12-.95c0-.16,0-.31.08-.51a4,4,0,0,0-1.31.78.43.43,0,0,0-.12.22L33,34.9c0,.15-.14.29-.23.49a2.72,2.72,0,0,1-.19-.29c-.47-.8-.93-1.6-1.39-2.4-.06-.1-.12-.19-.26-.15a4.15,4.15,0,0,0-1.32.78l.15.08a1,1,0,0,1,.62,1c0,1.49.06,3,.09,4.47,0,.49,0,1,0,1.48a4.48,4.48,0,0,1-.29,2.17,1.71,1.71,0,0,0,0,.23A9.1,9.1,0,0,0,32,41.67a4,4,0,0,1-.36-.33.34.34,0,0,1-.11-.19,7.67,7.67,0,0,1-.05-.82c0-1.48,0-2.95,0-4.43,0,0,0-.06,0-.08s0-.14.07-.14a.17.17,0,0,1,.15.06,5.08,5.08,0,0,1,.27.43l.68,1.29a.63.63,0,0,0,.43.39l1.16-3.48.11,0Zm-25-6.12c0-.06,0-.1,0-.14a3.85,3.85,0,0,1,.27-3.08c.11-.17,0-.32-.19-.31a.85.85,0,0,0-.46.1,1.16,1.16,0,0,1-1.14.08A2.72,2.72,0,0,0,5,31.35a2.66,2.66,0,0,0-.27,3.49,6.83,6.83,0,0,0,1,1c.45.4.93.75,1.38,1.13a3.75,3.75,0,0,1,1,1.2,2.19,2.19,0,0,1-.82,2.87,1.17,1.17,0,0,1-.77.19c-.54-.06-1.17-.33-1.07-1.14a.75.75,0,0,1,.73-.58c.19,0,.26,0,.22-.24a1,1,0,0,0-.82-.61A1.53,1.53,0,0,0,4,40.42a2.21,2.21,0,0,0,1.47,1.8,3.06,3.06,0,0,0,3.28-1.1c.91-1.26,1.17-3.79-.52-5.13-.57-.45-1.13-.89-1.68-1.35A3.64,3.64,0,0,1,5.5,33.28a1,1,0,0,1,0-.93,1.43,1.43,0,0,1,1.57-.8,1.08,1.08,0,0,1,1,1.41,4,4,0,0,1-.19.51s.09.07.13.06c.33-.07.52.15.71.36A.58.58,0,0,0,9.28,34.11Zm15,2.22.06.07.1,0c.43,0,.58.15.59.58,0,1.25,0,2.49.07,3.74,0,1,0,2,0,3,0,.56,0,1.11,0,1.66,0,.13,0,.25-.05.41a5.75,5.75,0,0,0,1.59-.9c.13-.11.06-.2,0-.24-.27-.09-.29-.29-.26-.53s0-.34,0-.51l0-2.56a1.88,1.88,0,0,1,.05-.33l.08,0c0,.08.1.15.13.23s.13.4.19.61a8.68,8.68,0,0,0,1.66,3.06,2.49,2.49,0,0,0,1.25.78,1.21,1.21,0,0,0,1-.12A.46.46,0,0,0,31,44.8l-.25,0a1.32,1.32,0,0,1-1-.32,4.1,4.1,0,0,1-.92-1.11A9.49,9.49,0,0,1,28,41a.82.82,0,0,1,.33-1,2.15,2.15,0,0,0,.47-.43,4,4,0,0,0,.79-2.41A2.24,2.24,0,0,0,26.81,35a6.86,6.86,0,0,0-2.23,1.07A2,2,0,0,0,24.26,36.33Zm16.15-20,.07,0c.15.3.32.58.46.89.46,1,.91,2,1.37,3a2.08,2.08,0,0,0,.75,1,1,1,0,0,0,.35.05,1,1,0,0,0,0-.3,11.78,11.78,0,0,1-.5-3.33c0-.73,0-1.46,0-2.19.07-.92.18-1.83.28-2.74a7.31,7.31,0,0,0,.07-2.14.91.91,0,0,0-1.51-.6.31.31,0,0,0,0,.49c.08.09.19.16.27.26a.63.63,0,0,1,.16.3,12.18,12.18,0,0,1,0,1.35c-.05,1.2-.13,2.4-.19,3.59l0,.24L41.84,16c-.19-.39-.38-.78-.56-1.18-.3-.66-.59-1.33-.88-2-.13-.29-.29-.36-.56-.2s-.71.43-1.06.66a1.63,1.63,0,0,0-.21.19l.52.2c.17.08.32.18.33.4s0,.58,0,.86q0,3.38,0,6.73a7.83,7.83,0,0,1-.1.83,2.23,2.23,0,0,1,0,.23,3.11,3.11,0,0,0,1.47-.93c-.37-.1-.39-.39-.4-.72,0-1.31,0-2.62,0-3.94ZM24.31,46.3a2.32,2.32,0,0,1-.36-.57c-.37-1.54-.71-3.08-1.06-4.62-.23-1-.48-2-.7-3-.12-.59-.21-1.2-.33-1.83a3.19,3.19,0,0,0-.26.26,4.11,4.11,0,0,0-.76,1.69c-.11.45-.16.92-.25,1.37-.3,1.53-.61,3.06-.9,4.59-.24,1.23-.45,2.47-.71,3.7a3.82,3.82,0,0,1-.71,1.79,1.29,1.29,0,0,0-.12.26.58.58,0,0,0,.16,0l2-1.17a.46.46,0,0,0,.12-.17c-.44-.11-.54-.2-.5-.63.07-.72.2-1.43.31-2.14a.12.12,0,0,1,.07-.1c.58-.34,1.17-.69,1.76-1a.23.23,0,0,1,.36.18,4.25,4.25,0,0,1,.33,2.27A4.63,4.63,0,0,0,24.31,46.3ZM38.88,19a9.21,9.21,0,0,0-.54-3.07,2.18,2.18,0,0,0-.78-1,1.25,1.25,0,0,0-1-.24,2.38,2.38,0,0,0-1.33.79,4.31,4.31,0,0,0-.77,1.43A10,10,0,0,0,34,21.16a7.73,7.73,0,0,0,.8,2.74,1.31,1.31,0,0,0,.26.4,1.58,1.58,0,0,0,2.31,0,4.22,4.22,0,0,0,.74-1.11A10,10,0,0,0,38.88,19Zm-18-8.74a4.55,4.55,0,0,0-1.93,1.13c.36.1.53.26.54.54,0,.71,0,1.41,0,2.12a.45.45,0,0,1-.25.43c-.26.14-.51.31-.77.46s-.51.29-.77.42-.21,0-.21-.14c0-.73-.07-1.46-.07-2.19a4.93,4.93,0,0,1,.15-.91,6.06,6.06,0,0,0-1.89,1.08,2.38,2.38,0,0,0,.19.17.69.69,0,0,1,.33.61c0,.9,0,1.79.05,2.68,0,1.1.05,2.2.09,3.29a4,4,0,0,1-.22,1.43c0,.05,0,.11-.06.2a7.64,7.64,0,0,0,2.14-1.26c-.53-.15-.63-.22-.65-.7-.05-1-.06-2-.07-3.07a.29.29,0,0,1,.13-.25c.51-.34,1-.67,1.55-1,.19-.11.33,0,.33.21,0,1.1,0,2.2,0,3.3a3.85,3.85,0,0,1-.13.66,1.18,1.18,0,0,0,0,.19,8.4,8.4,0,0,0,1.73-1,1.64,1.64,0,0,1-.22-.15,1.15,1.15,0,0,1-.24-.35,1.73,1.73,0,0,1-.05-.51l0-5.13A4.46,4.46,0,0,1,20.86,10.24ZM12.18,39c-.42-.08-.56-.17-.63-.46a1.22,1.22,0,0,1-.05-.5c.09-.55.2-1.1.33-1.64a.6.6,0,0,1,.24-.34c.31-.18.64-.32,1-.49s.27,0,.32.14c.12.38.24.77.33,1.16a1.76,1.76,0,0,1-.17,1.29.64.64,0,0,0,0,.09,1.63,1.63,0,0,0,.23-.07l1.48-.82c.24-.14.25-.22.11-.46a2.42,2.42,0,0,1-.27-.5c-.1-.26-.16-.53-.24-.8-.6-2.22-1.21-4.44-1.81-6.66a.57.57,0,0,1,0-.26c0-.27.08-.55.13-.86a3.5,3.5,0,0,0-.43.33A2.77,2.77,0,0,0,12,29.37c-.51,2.82-1,5.64-1.51,8.45a7.37,7.37,0,0,1-.64,2.39,1.21,1.21,0,0,0-.07.24A10.23,10.23,0,0,0,12.18,39ZM25.64,20.3l-.05,0a1.39,1.39,0,0,0-.15.19,6.83,6.83,0,0,0-.66,1.87c-.18.93-.33,1.88-.51,2.82-.24,1.27-.49,2.54-.73,3.81a20.7,20.7,0,0,1-.78,3.29l-.19.53a17.4,17.4,0,0,0,2.3-1.36l-.09,0c-.58-.06-.63-.12-.6-.71v-.07c.07-.43.17-.85.21-1.28a.63.63,0,0,1,.31-.52c.32-.2.65-.4,1-.58.12-.06.27-.12.34.08A3.28,3.28,0,0,1,26.23,30c0,.2-.07.41-.11.67A7.27,7.27,0,0,0,28,29.54a1.74,1.74,0,0,1-.26-.16,1,1,0,0,1-.2-.31c-.1-.33-.19-.66-.27-1-.37-1.58-.72-3.16-1.1-4.74a12.88,12.88,0,0,1-.49-2.69C25.66,20.53,25.65,20.41,25.64,20.3Zm15,16.25a1,1,0,0,0-.14-.19.7.7,0,0,1-.26-.6c0-.61,0-1.23,0-1.84a4.27,4.27,0,0,1,.33-1.8c.62-1.62,1.22-3.25,1.83-4.88a1.75,1.75,0,0,0,.08-1,1.2,1.2,0,0,0-1.73-.84c-.08,0-.13.15-.17.25s0,.13.1.16a1.35,1.35,0,0,1,.62,1.44,5.93,5.93,0,0,1-.24,1c-.35,1-.73,2-1.11,3.05a2.27,2.27,0,0,1-.3.43c-.1-.18-.18-.3-.24-.43-.24-.53-.46-1.07-.73-1.59a1.51,1.51,0,0,1-.15-1.1L38.6,28a9.05,9.05,0,0,0-2,1.13,2.77,2.77,0,0,1,.46.53c.56,1.07,1.09,2.16,1.63,3.25a1.07,1.07,0,0,1,.1.4c0,.69.09,1.38.13,2.07a4,4,0,0,1-.32,2.12,1.68,1.68,0,0,0-.08.28Zm-18-18.74.13,0L27,15.25a.33.33,0,0,0,.14-.22c.07-.69.12-1.37.18-2a.32.32,0,0,0,0-.09.49.49,0,0,0-.13.2c-.12.29-.22.6-.36.88a3.55,3.55,0,0,1-1.7,1.72,2.81,2.81,0,0,1-.65.16c-.13,0-.23,0-.26-.2a4.48,4.48,0,0,1-.11-.72c0-.68,0-1.36,0-2a.73.73,0,0,1,.25-.63,1.75,1.75,0,0,1,.68-.4c.47-.12,1-.14,1.44-.24,1-.21,1.26-.73,1.38-1.58a.88.88,0,0,0,0-.3c-.05,0-.08.06-.09.09a1.37,1.37,0,0,1-1.24.9,3.43,3.43,0,0,0-1.9.77,2.36,2.36,0,0,1-.42.28c0-.13-.05-.22-.06-.31,0-.55,0-1.11,0-1.66a1.19,1.19,0,0,1,.49-1,1.11,1.11,0,0,1,1.81.33c0,.06.07.11.12.19a6.68,6.68,0,0,0-.16-2c-.05-.16-.15-.15-.28-.08-1.19.66-2.4,1.31-3.59,2a3.55,3.55,0,0,0-.44.35l0,.07.34.08a.63.63,0,0,1,.48.56c0,.86.06,1.72.08,2.58s0,1.93,0,2.9A8.48,8.48,0,0,1,22.84,17,6.21,6.21,0,0,1,22.6,17.81ZM20.91,34A1.89,1.89,0,0,0,21.46,33c.22-1.08.42-2.15.62-3.23.33-1.79.65-3.59,1-5.38.13-.67.28-1.34.42-2.06a6.76,6.76,0,0,0-1.84,1.06,5,5,0,0,1,.32.58A1.94,1.94,0,0,1,22,25c-.18,1.11-.37,2.23-.56,3.35-.07.41-.17.81-.25,1.22H21.1a2.29,2.29,0,0,1-.1-.23c-.18-.71-.38-1.42-.53-2.14a5.88,5.88,0,0,1-.24-3,7.58,7.58,0,0,0-2.07,1.26,1.31,1.31,0,0,1,.91,1s0,.08,0,.12q.74,2.86,1.46,5.73C20.7,32.89,20.8,33.45,20.91,34ZM14.57,12.6l-.7.35c-1.1.63-2.2,1.26-3.29,1.9a.45.45,0,0,0-.16.22,1.27,1.27,0,0,0-.06.39c0,.62,0,1.24,0,1.85a3.16,3.16,0,0,1-.25,1.29.5.5,0,0,0,0,.12l.05,0c.07-.07.16-.13.23-.21a2.78,2.78,0,0,0,.54-1.3c.13-.54.28-1.08.44-1.62a1,1,0,0,1,.49-.63c.12-.06.2,0,.22.11a3.12,3.12,0,0,1,.05.44c0,1.47.06,2.94.08,4.42,0,.94,0,1.87,0,2.81a1.84,1.84,0,0,1-.36,1.13.93.93,0,0,0-.08.17,27.1,27.1,0,0,0,2.45-1.4H14a.57.57,0,0,1-.46-.47c0-.52,0-1,0-1.57,0-1.14-.1-2.28-.12-3.43,0-.9,0-1.81,0-2.72a.53.53,0,0,1,.23-.31c.06,0,.23,0,.28.09a4.13,4.13,0,0,1,.47.63c.13.23.22.48.36.7a3.57,3.57,0,0,0,.43.45c-.11-.47-.22-.88-.28-1.3s-.08-.91-.14-1.36C14.68,13.13,14.62,12.88,14.57,12.6Zm16.57,8.5.1,0v-.26c0-.43,0-.87,0-1.3s-.05-.82-.1-1.23-.18-.44-.51-.25c-1.08.62-2.15,1.25-3.23,1.86a.59.59,0,0,0-.34.6c0,.71,0,1.41,0,2.12a.21.21,0,0,0,0,.07l.07,0c.09-.24.19-.48.26-.72s.17-.73.3-1.08a2.26,2.26,0,0,1,.37-.59.29.29,0,0,1,.27-.06c.07,0,.13.13.14.21,0,.89.07,1.78.08,2.68,0,1.64,0,3.28,0,4.93a3.66,3.66,0,0,1-.05.57c0,.18-.05.35-.08.56a4.43,4.43,0,0,0,1.82-1,2.44,2.44,0,0,1-.37-.32.63.63,0,0,1-.16-.34c0-.62,0-1.23,0-1.84,0-1.88,0-3.76,0-5.64a.63.63,0,0,1,0-.24,1.43,1.43,0,0,1,.35-.45c.16-.1.33,0,.44.17a2.2,2.2,0,0,1,.28.44c.06.14.08.31.14.46S31.05,20.87,31.14,21.1ZM15,27.31l.23.05a.72.72,0,0,1,.62.76c0,.63,0,1.26,0,1.88l0,6.64a1.54,1.54,0,0,0,0,.19,1.13,1.13,0,0,0,.18-.07c.9-.53,1.79-1.06,2.69-1.57a.67.67,0,0,0,.38-.67c0-.53,0-1.06.05-1.59a8.54,8.54,0,0,1,.23-1.09,1.13,1.13,0,0,0-.33.15,2.17,2.17,0,0,0-.54,1.14c-.1.42-.2.85-.33,1.27a1.1,1.1,0,0,1-.53.63.37.37,0,0,1-.57-.23A6.42,6.42,0,0,1,17,33.64c0-1.95-.05-3.91-.05-5.86A3.91,3.91,0,0,1,17.25,26l0,0A15.3,15.3,0,0,0,15,27.31Zm16.62-9.89a1.38,1.38,0,0,1,.27.24A.74.74,0,0,1,32,18c.05,1.14.1,2.28.13,3.43s.06,2.4.07,3.6a9.53,9.53,0,0,1-.08,1.41,4.25,4.25,0,0,1-.22.75h0c.59-.34,1.18-.68,1.76-1,.11-.07.1-.16,0-.24a.53.53,0,0,1-.3-.43c0-.81-.07-1.62-.08-2.43,0-1.76,0-3.51,0-5.27a2.78,2.78,0,0,1,.2-1.1,2.12,2.12,0,0,0,.1-.36l-.06,0Z" transform="translate(0)" style="fill:red"/><path d="M28.32,57.21c.36,0,.7,0,1,.06a.47.47,0,0,1,.42.53.49.49,0,0,1-.41.52l-.08,0,.24.41.26.43c-.18.06-.29,0-.38-.13s-.25-.4-.36-.6a.28.28,0,0,0-.38-.13c-.06,0-.09.17-.1.26s0,.4,0,.62h-.24Zm.64.92.23,0c.22,0,.32-.14.3-.35s-.09-.25-.15-.26a4.49,4.49,0,0,0-.73-.06,3.15,3.15,0,0,0,0,.53c0,.05.08.13.15.15A.61.61,0,0,0,29,58.13Z" transform="translate(0)" style="fill:red"/><path d="M34.29,40.23V34.39l-.11,0L33,37.85a.63.63,0,0,1-.43-.39l-.68-1.29a5.08,5.08,0,0,0-.27-.43.17.17,0,0,0-.15-.06s-.06.08-.07.14,0,0,0,.08c0,1.48,0,3,0,4.43a7.67,7.67,0,0,0,.05.82.34.34,0,0,0,.11.19,4,4,0,0,0,.36.33,9.1,9.1,0,0,1-1.8,1.07,1.71,1.71,0,0,1,0-.23,4.48,4.48,0,0,0,.29-2.17c0-.49,0-1,0-1.48,0-1.49-.08-3-.09-4.47a1,1,0,0,0-.62-1l-.15-.08a4.15,4.15,0,0,1,1.32-.78c.14,0,.2.05.26.15.46.8.92,1.6,1.39,2.4a2.72,2.72,0,0,0,.19.29c.09-.2.18-.34.23-.49l1.17-4.14a.43.43,0,0,1,.12-.22,4,4,0,0,1,1.31-.78c0,.2-.06.35-.08.51a6,6,0,0,0-.12.95c0,1.8,0,3.59,0,5.38,0,.65,0,1.3,0,1.95a.66.66,0,0,0,.34.64l.08.07s0,0,0,0A4.61,4.61,0,0,1,34.29,40.23Z" transform="translate(0)" style="fill:#fff"/><path d="M9.28,34.11a.58.58,0,0,1-.52-.22c-.19-.21-.38-.43-.71-.36,0,0-.09,0-.13-.06A4,4,0,0,0,8.11,33a1.08,1.08,0,0,0-1-1.41,1.43,1.43,0,0,0-1.57.8,1,1,0,0,0,0,.93,3.64,3.64,0,0,0,1.07,1.36c.55.46,1.11.9,1.68,1.35,1.69,1.34,1.43,3.87.52,5.13a3.06,3.06,0,0,1-3.28,1.1A2.21,2.21,0,0,1,4,40.42a1.53,1.53,0,0,1,1.54-1.73,1,1,0,0,1,.82.61c0,.19,0,.27-.22.24a.75.75,0,0,0-.73.58c-.1.81.53,1.08,1.07,1.14a1.17,1.17,0,0,0,.77-.19,2.19,2.19,0,0,0,.82-2.87,3.75,3.75,0,0,0-1-1.2c-.45-.38-.93-.73-1.38-1.13a6.83,6.83,0,0,1-1-1A2.66,2.66,0,0,1,5,31.35a2.72,2.72,0,0,1,2.69-.59,1.16,1.16,0,0,0,1.14-.08.85.85,0,0,1,.46-.1c.21,0,.3.14.19.31A3.85,3.85,0,0,0,9.25,34S9.27,34.05,9.28,34.11Z" transform="translate(0)" style="fill:#fff"/><path d="M24.26,36.33a2,2,0,0,1,.32-.26A6.86,6.86,0,0,1,26.81,35a2.24,2.24,0,0,1,2.73,2.21,4,4,0,0,1-.79,2.41,2.15,2.15,0,0,1-.47.43A.82.82,0,0,0,28,41a9.49,9.49,0,0,0,.84,2.36,4.1,4.1,0,0,0,.92,1.11,1.32,1.32,0,0,0,1,.32l.25,0a.46.46,0,0,1-.25.46,1.21,1.21,0,0,1-1,.12,2.49,2.49,0,0,1-1.25-.78,8.68,8.68,0,0,1-1.66-3.06c-.06-.21-.12-.41-.19-.61s-.09-.15-.13-.23l-.08,0a1.88,1.88,0,0,0-.05.33l0,2.56c0,.17,0,.34,0,.51s0,.44.26.53c.1,0,.17.13,0,.24a5.75,5.75,0,0,1-1.59.9c0-.16,0-.28.05-.41,0-.55,0-1.1,0-1.66,0-1,0-2,0-3,0-1.25,0-2.49-.07-3.74,0-.43-.16-.57-.59-.58l-.1,0Zm2.08,2.13h0c0,.43,0,.86,0,1.3,0,.28.08.35.36.35a1.19,1.19,0,0,0,1.11-.82,8.19,8.19,0,0,0,.23-.85A3.53,3.53,0,0,0,28,36.38a.67.67,0,0,0-.5-.44,2.32,2.32,0,0,0-.59,0,.53.53,0,0,0-.53.53C26.33,37.1,26.34,37.78,26.34,38.46Z" transform="translate(0)" style="fill:#fff"/><path d="M40.41,16.35v.74c0,1.32,0,2.63,0,3.94,0,.33,0,.62.4.72a3.11,3.11,0,0,1-1.47.93,2.23,2.23,0,0,0,0-.23,7.83,7.83,0,0,0,.1-.83q0-3.36,0-6.73c0-.28,0-.57,0-.86s-.16-.32-.33-.4l-.52-.2a1.63,1.63,0,0,1,.21-.19c.35-.23.7-.45,1.06-.66s.43-.09.56.2c.29.66.58,1.33.88,2,.18.4.37.79.56,1.18l.14.24L42,16c.06-1.19.14-2.39.19-3.59a12.18,12.18,0,0,0,0-1.35.63.63,0,0,0-.16-.3c-.08-.1-.19-.17-.27-.26a.31.31,0,0,1,0-.49.91.91,0,0,1,1.51.6,7.31,7.31,0,0,1-.07,2.14c-.1.91-.21,1.82-.28,2.74-.05.73-.06,1.46,0,2.19a11.78,11.78,0,0,0,.5,3.33,1,1,0,0,1,0,.3,1,1,0,0,1-.35-.05,2.08,2.08,0,0,1-.75-1c-.46-1-.91-2-1.37-3-.14-.31-.31-.59-.46-.89Z" transform="translate(0)" style="fill:#fff"/><path d="M24.31,46.3a4.63,4.63,0,0,1-1.54.82,4.25,4.25,0,0,0-.33-2.27.23.23,0,0,0-.36-.18c-.59.32-1.18.67-1.76,1a.12.12,0,0,0-.07.1c-.11.71-.24,1.42-.31,2.14,0,.43.06.52.5.63a.46.46,0,0,1-.12.17l-2,1.17a.58.58,0,0,1-.16,0,1.29,1.29,0,0,1,.12-.26A3.82,3.82,0,0,0,19,47.88c.26-1.23.47-2.47.71-3.7.29-1.53.6-3.06.9-4.59.09-.45.14-.92.25-1.37a4.11,4.11,0,0,1,.76-1.69,3.19,3.19,0,0,1,.26-.26c.12.63.21,1.24.33,1.83.22,1,.47,2,.7,3,.35,1.54.69,3.08,1.06,4.62A2.32,2.32,0,0,0,24.31,46.3ZM20.6,44.36c.08,0,.13,0,.18,0l1.14-.58a.32.32,0,0,0,.16-.41c-.15-.68-.31-1.36-.47-2-.09-.33-.19-.65-.29-1h-.09A33.33,33.33,0,0,0,20.6,44.36Z" transform="translate(0)" style="fill:#fff"/><path d="M38.88,19a10,10,0,0,1-.8,4.17,4.22,4.22,0,0,1-.74,1.11,1.58,1.58,0,0,1-2.31,0,1.31,1.31,0,0,1-.26-.4,7.73,7.73,0,0,1-.8-2.74,10,10,0,0,1,.45-4.31,4.31,4.31,0,0,1,.77-1.43,2.38,2.38,0,0,1,1.33-.79,1.25,1.25,0,0,1,1,.24,2.18,2.18,0,0,1,.78,1A9.21,9.21,0,0,1,38.88,19Zm-1.2.22c-.07-.78-.12-1.57-.2-2.35a1.62,1.62,0,0,0-.37-1,.65.65,0,0,0-1,0,1.49,1.49,0,0,0-.44.87c-.11.66-.2,1.32-.28,2a12.41,12.41,0,0,0,.1,3.65,3.17,3.17,0,0,0,.5,1.33.52.52,0,0,0,.9.05A.79.79,0,0,0,37,23.4a6,6,0,0,0,.31-1A20.32,20.32,0,0,0,37.68,19.2Z" transform="translate(0)" style="fill:#fff"/><path d="M20.86,10.24a4.46,4.46,0,0,0-.25,2.22l0,5.13a1.73,1.73,0,0,0,.05.51,1.15,1.15,0,0,0,.24.35,1.64,1.64,0,0,0,.22.15,8.4,8.4,0,0,1-1.73,1,1.18,1.18,0,0,1,0-.19,3.85,3.85,0,0,0,.13-.66c0-1.1,0-2.2,0-3.3,0-.22-.14-.32-.33-.21-.53.32-1,.65-1.55,1a.29.29,0,0,0-.13.25c0,1,0,2,.07,3.07,0,.48.12.55.65.7a7.64,7.64,0,0,1-2.14,1.26c0-.09,0-.15.06-.2a4,4,0,0,0,.22-1.43c0-1.09-.06-2.19-.09-3.29,0-.89,0-1.78-.05-2.68a.69.69,0,0,0-.33-.61,2.38,2.38,0,0,1-.19-.17,6.06,6.06,0,0,1,1.89-1.08,4.93,4.93,0,0,0-.15.91c0,.73,0,1.46.07,2.19,0,.15.07.21.21.14s.52-.27.77-.42.51-.32.77-.46a.45.45,0,0,0,.25-.43c0-.71,0-1.41,0-2.12,0-.28-.18-.44-.54-.54A4.55,4.55,0,0,1,20.86,10.24Z" transform="translate(0)" style="fill:#fff"/><path d="M12.18,39a10.23,10.23,0,0,1-2.37,1.5,1.21,1.21,0,0,1,.07-.24,7.37,7.37,0,0,0,.64-2.39c.52-2.81,1-5.63,1.51-8.45a2.77,2.77,0,0,1,.63-1.27,3.5,3.5,0,0,1,.43-.33c-.05.31-.1.59-.13.86a.57.57,0,0,0,0,.26c.6,2.22,1.21,4.44,1.81,6.66.08.27.14.54.24.8a2.42,2.42,0,0,0,.27.5c.14.24.13.32-.11.46l-1.48.82a1.63,1.63,0,0,1-.23.07.64.64,0,0,1,0-.09,1.76,1.76,0,0,0,.17-1.29c-.09-.39-.21-.78-.33-1.16,0-.17-.15-.22-.32-.14s-.65.31-1,.49a.6.6,0,0,0-.24.34c-.13.54-.24,1.09-.33,1.64a1.22,1.22,0,0,0,.05.5C11.62,38.78,11.76,38.87,12.18,39Zm.53-7.43-.06,0c0,.05-.11.1-.12.16-.14.86-.27,1.71-.39,2.57,0,.24,0,.49-.05.74l.06,0,.88-.52a.3.3,0,0,0,.1-.24C13,33.34,12.85,32.43,12.71,31.52Z" transform="translate(0)" style="fill:#fff"/><path d="M25.64,20.3c0,.11,0,.23,0,.34a12.88,12.88,0,0,0,.49,2.69c.38,1.58.73,3.16,1.1,4.74.08.34.17.67.27,1a1,1,0,0,0,.2.31,1.74,1.74,0,0,0,.26.16,7.27,7.27,0,0,1-1.86,1.11c0-.26.07-.47.11-.67A3.28,3.28,0,0,0,26,28.31c-.07-.2-.22-.14-.34-.08-.33.18-.66.38-1,.58a.63.63,0,0,0-.31.52c0,.43-.14.85-.21,1.28v.07c0,.59,0,.65.6.71l.09,0a17.4,17.4,0,0,1-2.3,1.36l.19-.53A20.7,20.7,0,0,0,23.54,29c.24-1.27.49-2.54.73-3.81.18-.94.33-1.89.51-2.82a6.83,6.83,0,0,1,.66-1.87,1.39,1.39,0,0,1,.15-.19Zm-.85,7.42.83-.43a.41.41,0,0,0,.2-.5c-.11-.55-.2-1.11-.3-1.66-.05-.28-.1-.56-.16-.83h-.09A20,20,0,0,0,24.79,27.72Z" transform="translate(0)" style="fill:#fff"/><path d="M40.63,36.55,38.57,37.8a1.68,1.68,0,0,1,.08-.28A4,4,0,0,0,39,35.4c0-.69-.08-1.38-.13-2.07a1.07,1.07,0,0,0-.1-.4c-.54-1.09-1.07-2.18-1.63-3.25a2.77,2.77,0,0,0-.46-.53,9.05,9.05,0,0,1,2-1.13l-.13.61a1.51,1.51,0,0,0,.15,1.1c.27.52.49,1.06.73,1.59.06.13.14.25.24.43a2.27,2.27,0,0,0,.3-.43c.38-1,.76-2,1.11-3.05a5.93,5.93,0,0,0,.24-1,1.35,1.35,0,0,0-.62-1.44s-.11-.12-.1-.16.09-.22.17-.25a1.2,1.2,0,0,1,1.73.84,1.75,1.75,0,0,1-.08,1c-.61,1.63-1.21,3.26-1.83,4.88a4.27,4.27,0,0,0-.33,1.8c0,.61,0,1.23,0,1.84a.7.7,0,0,0,.26.6A1,1,0,0,1,40.63,36.55Z" transform="translate(0)" style="fill:#fff"/><path d="M22.6,17.81a6.21,6.21,0,0,0,.24-.86,8.48,8.48,0,0,0,.09-1.23c0-1,0-1.93,0-2.9s-.06-1.72-.08-2.58a.63.63,0,0,0-.48-.56L22,9.6l0-.07a3.55,3.55,0,0,1,.44-.35c1.19-.67,2.4-1.32,3.59-2,.13-.07.23-.08.28.08a6.68,6.68,0,0,1,.16,2c-.05-.08-.09-.13-.12-.19a1.11,1.11,0,0,0-1.81-.33,1.19,1.19,0,0,0-.49,1c0,.55,0,1.11,0,1.66,0,.09,0,.18.06.31a2.36,2.36,0,0,0,.42-.28,3.43,3.43,0,0,1,1.9-.77,1.37,1.37,0,0,0,1.24-.9s0,0,.09-.09a.88.88,0,0,1,0,.3c-.12.85-.35,1.37-1.38,1.58-.47.1-1,.12-1.44.24a1.75,1.75,0,0,0-.68.4.73.73,0,0,0-.25.63c0,.68,0,1.36,0,2a4.48,4.48,0,0,0,.11.72c0,.15.13.23.26.2a2.81,2.81,0,0,0,.65-.16A3.55,3.55,0,0,0,26.78,14c.14-.28.24-.59.36-.88a.49.49,0,0,1,.13-.2.32.32,0,0,1,0,.09c-.06.68-.11,1.36-.18,2a.33.33,0,0,1-.14.22l-4.25,2.51Z" transform="translate(0)" style="fill:#fff"/><path d="M20.91,34c-.11-.56-.21-1.12-.34-1.66q-.72-2.87-1.46-5.73s0-.08,0-.12a1.31,1.31,0,0,0-.91-1,7.58,7.58,0,0,1,2.07-1.26,5.88,5.88,0,0,0,.24,3c.15.72.35,1.43.53,2.14a2.29,2.29,0,0,0,.1.23h.09c.08-.41.18-.81.25-1.22.19-1.12.38-2.24.56-3.35a1.94,1.94,0,0,0,0-1.07,5,5,0,0,0-.32-.58,6.76,6.76,0,0,1,1.84-1.06c-.14.72-.29,1.39-.42,2.06-.33,1.79-.65,3.59-1,5.38-.2,1.08-.4,2.15-.62,3.23A1.89,1.89,0,0,1,20.91,34Z" transform="translate(0)" style="fill:#fff"/><path d="M14.57,12.6c0,.28.11.53.14.78.06.45.07.91.14,1.36s.17.83.28,1.3a3.57,3.57,0,0,1-.43-.45c-.14-.22-.23-.47-.36-.7a4.13,4.13,0,0,0-.47-.63c0-.07-.22-.13-.28-.09a.53.53,0,0,0-.23.31c0,.91,0,1.82,0,2.72,0,1.15.08,2.29.12,3.43,0,.53,0,1.05,0,1.57a.57.57,0,0,0,.46.47h.25a27.1,27.1,0,0,1-2.45,1.4.93.93,0,0,1,.08-.17,1.84,1.84,0,0,0,.36-1.13c0-.94,0-1.87,0-2.81,0-1.48-.05-2.95-.08-4.42a3.12,3.12,0,0,0-.05-.44c0-.13-.1-.17-.22-.11a1,1,0,0,0-.49.63c-.16.54-.31,1.08-.44,1.62a2.78,2.78,0,0,1-.54,1.3c-.07.08-.16.14-.23.21l-.05,0a.5.5,0,0,1,0-.12,3.16,3.16,0,0,0,.25-1.29c0-.61,0-1.23,0-1.85a1.27,1.27,0,0,1,.06-.39.45.45,0,0,1,.16-.22c1.09-.64,2.19-1.27,3.29-1.9Z" transform="translate(0)" style="fill:#fff"/><path d="M31.14,21.1c-.09-.23-.18-.46-.26-.69s-.08-.32-.14-.46a2.2,2.2,0,0,0-.28-.44c-.11-.13-.28-.27-.44-.17a1.43,1.43,0,0,0-.35.45.63.63,0,0,0,0,.24c0,1.88,0,3.76,0,5.64,0,.61,0,1.22,0,1.84a.63.63,0,0,0,.16.34,2.44,2.44,0,0,0,.37.32,4.43,4.43,0,0,1-1.82,1c0-.21.06-.38.08-.56a3.66,3.66,0,0,0,.05-.57c0-1.65,0-3.29,0-4.93,0-.9-.05-1.79-.08-2.68,0-.08-.07-.2-.14-.21a.29.29,0,0,0-.27.06,2.26,2.26,0,0,0-.37.59c-.13.35-.19.72-.3,1.08s-.17.48-.26.72l-.07,0a.21.21,0,0,1,0-.07c0-.71,0-1.41,0-2.12a.59.59,0,0,1,.34-.6c1.08-.61,2.15-1.24,3.23-1.86.33-.19.47-.13.51.25s.08.82.1,1.23,0,.87,0,1.3v.26Z" transform="translate(0)" style="fill:#fff"/><path d="M15,27.31a15.3,15.3,0,0,1,2.26-1.37l0,0A3.91,3.91,0,0,0,17,27.78c0,1.95,0,3.91.05,5.86a6.42,6.42,0,0,0,.11,1.16.37.37,0,0,0,.57.23,1.1,1.1,0,0,0,.53-.63c.13-.42.23-.85.33-1.27A2.17,2.17,0,0,1,19.09,32a1.13,1.13,0,0,1,.33-.15,8.54,8.54,0,0,0-.23,1.09c-.05.53-.05,1.06-.05,1.59a.67.67,0,0,1-.38.67c-.9.51-1.79,1-2.69,1.57a1.13,1.13,0,0,1-.18.07,1.54,1.54,0,0,1,0-.19l0-6.64c0-.62,0-1.25,0-1.88a.72.72,0,0,0-.62-.76Z" transform="translate(0)" style="fill:#fff"/><path d="M31.58,17.42l2-1.14.06,0a2.12,2.12,0,0,1-.1.36,2.78,2.78,0,0,0-.2,1.1c0,1.76,0,3.51,0,5.27,0,.81.06,1.62.08,2.43a.53.53,0,0,0,.3.43c.12.08.13.17,0,.24-.58.35-1.17.69-1.76,1h0a4.25,4.25,0,0,0,.22-.75A9.53,9.53,0,0,0,32.21,25c0-1.2,0-2.4-.07-3.6S32.06,19.12,32,18a.74.74,0,0,0-.16-.32A1.38,1.38,0,0,0,31.58,17.42Z" transform="translate(0)" style="fill:#fff"/><path d="M29,58.13a.61.61,0,0,1-.24,0c-.07,0-.15-.1-.15-.15a3.15,3.15,0,0,1,0-.53,4.49,4.49,0,0,1,.73.06c.06,0,.14.16.15.26s-.08.32-.3.35Z" transform="translate(0)" style="fill:#fff"/><path d="M26.34,38.46c0-.68,0-1.36,0-2a.53.53,0,0,1,.53-.53,2.32,2.32,0,0,1,.59,0,.67.67,0,0,1,.5.44A3.53,3.53,0,0,1,28,38.44a8.19,8.19,0,0,1-.23.85,1.19,1.19,0,0,1-1.11.82c-.28,0-.35-.07-.36-.35,0-.44,0-.87,0-1.3Z" transform="translate(0)" style="fill:red"/><path d="M20.6,44.36a33.33,33.33,0,0,1,.63-4h.09c.1.33.2.65.29,1,.16.68.32,1.36.47,2a.32.32,0,0,1-.16.41l-1.14.58C20.73,44.36,20.68,44.35,20.6,44.36Z" transform="translate(0)" style="fill:red"/><path d="M37.68,19.2a20.32,20.32,0,0,1-.34,3.21,6,6,0,0,1-.31,1,.79.79,0,0,1-.18.29.52.52,0,0,1-.9-.05,3.17,3.17,0,0,1-.5-1.33,12.41,12.41,0,0,1-.1-3.65c.08-.67.17-1.33.28-2a1.49,1.49,0,0,1,.44-.87.65.65,0,0,1,1,0,1.62,1.62,0,0,1,.37,1C37.56,17.63,37.61,18.42,37.68,19.2Z" transform="translate(0)" style="fill:red"/><path d="M12.71,31.52c.14.91.29,1.82.42,2.72a.3.3,0,0,1-.1.24l-.88.52-.06,0c0-.25,0-.5.05-.74.12-.86.25-1.71.39-2.57,0-.06.08-.11.12-.16Z" transform="translate(0)" style="fill:red"/><path d="M24.79,27.72a20,20,0,0,1,.48-3.43h.09c.06.27.11.55.16.83.1.55.19,1.11.3,1.66a.41.41,0,0,1-.2.5Z" transform="translate(0)" style="fill:red"/></svg>