<svg xmlns="http://www.w3.org/2000/svg" viewBox="0 0 25 25"><g id="van"><path d="M19.33,2.33H0V19.42H1.92a3.25,3.25,0,0,0,6.5,0h7.87a3.25,3.25,0,0,0,6.5,0H25V9.33Zm-.52,1,4.93,6H18.13l-1.42-6ZM5.17,21.6a2.18,2.18,0,1,1,2.18-2.18A2.18,2.18,0,0,1,5.17,21.6Zm14.37,0a2.18,2.18,0,1,1,2.18-2.18A2.19,2.19,0,0,1,19.54,21.6Z" style="fill:#fff"/></g><g id="account"><path d="M12.5,12.31A6.16,6.16,0,1,0,6.35,6.15,6.16,6.16,0,0,0,12.5,12.31Z" style="fill:#fff"/><path d="M12.5,13.65A12.52,12.52,0,0,0,.06,25H24.94A12.52,12.52,0,0,0,12.5,13.65Z" style="fill:#fff"/></g><g id="account-dark"><path d="M12.5,12.31A6.16,6.16,0,1,0,6.35,6.15,6.16,6.16,0,0,0,12.5,12.31Z" style="fill:#231f20"/><path d="M12.5,13.65A12.52,12.52,0,0,0,.06,25H24.94A12.52,12.52,0,0,0,12.5,13.65Z" style="fill:#231f20"/></g><g id="pickup"><polygon points="16.67 16.58 16.67 12.81 15.19 12.81 15.19 16.58 11.42 16.58 11.42 18.06 15.19 18.06 15.19 21.82 16.67 21.82 16.67 18.06 20.43 18.06 20.43 16.58 16.67 16.58" style="fill:#fff"/><path d="M21.33,11.87V0H2.94V22.73h7.54A7.68,7.68,0,1,0,21.33,11.87ZM6.49,3.48H17.78V5H6.49Zm0,3.05H17.78V8H6.49Zm9.44,17a6.2,6.2,0,1,1,6.2-6.2A6.21,6.21,0,0,1,15.93,23.52Z" style="fill:#fff"/></g><g id="search"><path d="M16.25,13.91a8.85,8.85,0,1,0-2.34,2.35L22.65,25,25,22.66ZM8.9,16.3a7.4,7.4,0,1,1,7.4-7.4A7.41,7.41,0,0,1,8.9,16.3Z" style="fill:#fff"/></g><g id="home"><path d="M25,12.3h0L21.23,8.57V2.38h-4.3V4.32L12.56,0,0,12.3v1.35H3.77V25h6V16h5.44v9h6V13.65H25ZM19.79,7.15l-1.42-1.4V3.82h1.42" style="fill:#fff"/></g><g id="home-dark"><path d="M25,12.3h0L21.23,8.57V2.38h-4.3V4.32L12.56,0,0,12.3v1.35H3.77V25h6V16h5.44v9h6V13.65H25ZM19.79,7.15l-1.42-1.4V3.82h1.42" style="fill:#231f20"/></g><g id="order"><path d="M12.5,0A12.5,12.5,0,1,0,25,12.5,12.5,12.5,0,0,0,12.5,0Zm-.76,19.14-6.4-7.53L7.63,9.67l4.13,4.86L18.08,7.2l2.27,2Z" style="fill:#fff"/></g><g id="back"><path d="M12.5,0A12.5,12.5,0,1,0,25,12.5,12.5,12.5,0,0,0,12.5,0Zm4.11,18-1.93,2.3L5.4,12.5l9.28-7.79L16.61,7,10.06,12.5Z" style="fill:#fff"/></g><g id="x"><path d="M12.5,0A12.5,12.5,0,1,0,25,12.5,12.5,12.5,0,0,0,12.5,0Zm6,16.42-2.12,2.12L12.5,14.62,8.58,18.54,6.46,16.42l3.92-3.92L6.46,8.58,8.58,6.46l3.92,3.92,3.92-3.92,2.12,2.12L14.62,12.5Z" style="fill:#fff"/></g><g id="logo"><path d="M10.41,0a5.91,5.91,0,0,0,2.14,1.57,7.07,7.07,0,0,0,1.73.59,5.38,5.38,0,0,0,1.33.07,10.53,10.53,0,0,0,2-.31c.51-.13,1-.3,1.52-.46a.78.78,0,0,1,.6,0,.7.7,0,0,1,.42.74c-.08.57-.15,1.15-.21,1.73s-.13,1.21-.16,1.81a17.22,17.22,0,0,0,0,1.76A9.48,9.48,0,0,0,20,8.9c.19.94.41,1.88.58,2.82.1.58.16,1.18.21,1.77a11.53,11.53,0,0,1,0,1.44,7.31,7.31,0,0,1-.91,3.36,6.31,6.31,0,0,1-2.28,2.28A10.51,10.51,0,0,1,15,21.66c-.45.14-.92.25-1.36.42a7.92,7.92,0,0,0-2.09,1.16c-.36.27-.7.58-1.06.88l0,0-.57-.5A9.45,9.45,0,0,0,7.2,22.08c-.44-.16-.9-.27-1.34-.42a10.25,10.25,0,0,1-3-1.3A6.19,6.19,0,0,1,.21,16.41,10.43,10.43,0,0,1,0,14.74a12.64,12.64,0,0,1,.11-2.21c.12-1,.34-2,.55-2.95C.8,9,.94,8.45,1,7.87a8.65,8.65,0,0,0,.06-1.25A7.16,7.16,0,0,0,1,5.7C1,5.28,1,4.87.93,4.45S.84,3.62.8,3.2.73,2.57.68,2.27a.69.69,0,0,1,.51-.82.9.9,0,0,1,.23,0,1.18,1.18,0,0,1,.27.06,12.55,12.55,0,0,0,2.41.62,9.1,9.1,0,0,0,1.73.13,5.47,5.47,0,0,0,1.73-.37A7.34,7.34,0,0,0,9.88.54C10.07.37,10.24.18,10.41,0Zm0,23.49h0l.06-.1c.14-.13.27-.26.42-.38a9.17,9.17,0,0,1,2.5-1.4c.46-.17.94-.3,1.41-.45a10.43,10.43,0,0,0,2.92-1.38,5.81,5.81,0,0,0,1.88-2.12A7.08,7.08,0,0,0,20.32,15a8.34,8.34,0,0,0,0-1.58c-.07-.57-.13-1.15-.24-1.73-.16-.91-.38-1.81-.55-2.72a10.72,10.72,0,0,1-.24-1.47c0-.51,0-1,0-1.55a3.88,3.88,0,0,1,0-.68q0-.67.12-1.35c0-.35.09-.7.13-1s0-.4.05-.6a.29.29,0,0,0-.26-.3H19.3a3,3,0,0,0-.52.13,13.63,13.63,0,0,1-3.34.6,5.58,5.58,0,0,1-1.9-.24,9.27,9.27,0,0,1-3-1.61c-.14-.11-.09-.11-.23,0A9.78,9.78,0,0,1,7.6,2.37a5.46,5.46,0,0,1-1.44.32A9.22,9.22,0,0,1,4.34,2.6a14.33,14.33,0,0,1-2-.42L1.66,2a.34.34,0,0,0-.43.19.59.59,0,0,0,0,.13.67.67,0,0,0,0,.2c.05.42.12.84.17,1.25s.08.84.12,1.25,0,.79.06,1.18a9.66,9.66,0,0,1-.14,2.34c-.18.91-.38,1.82-.57,2.72A18.32,18.32,0,0,0,.5,13.89,8.92,8.92,0,0,0,.64,16a6,6,0,0,0,.77,2.05A6.38,6.38,0,0,0,3.69,20.2,10.84,10.84,0,0,0,6.2,21.25a11.2,11.2,0,0,1,2,.74,8,8,0,0,1,2.15,1.49Z" style="fill:red"/><path d="M12.08,25a.74.74,0,0,1-.79-.69.73.73,0,0,1,.68-.79h.11A.74.74,0,1,1,12.19,25Zm0-1.37a.62.62,0,0,0-.62.62h0a.58.58,0,1,0,1.14-.09.64.64,0,0,0-.52-.53Z" style="fill:red"/><path d="M10.41,23.49s0,0,0,0A7.73,7.73,0,0,0,8.24,22a11.54,11.54,0,0,0-2-.73,11.21,11.21,0,0,1-2.53-1.06A6.41,6.41,0,0,1,1.4,18.07,6.19,6.19,0,0,1,.62,16a8.91,8.91,0,0,1-.13-2.13,17,17,0,0,1,.34-2.65L1.4,8.5a9.66,9.66,0,0,0,.14-2.34c0-.39,0-.79-.06-1.18s-.08-.83-.12-1.25-.11-.81-.17-1.23V2.3A.35.35,0,0,1,1.51,2a.33.33,0,0,1,.15,0l.63.2a14.33,14.33,0,0,0,2.05.42,9.22,9.22,0,0,0,1.82.08A5.46,5.46,0,0,0,7.6,2.36,9.5,9.5,0,0,0,10.31.85c.14-.12.09-.12.23,0a9.24,9.24,0,0,0,3,1.6,5.42,5.42,0,0,0,1.87.25,13.47,13.47,0,0,0,3.34-.6A3.13,3.13,0,0,1,19.28,2a.27.27,0,0,1,.31.23.13.13,0,0,1,0,.06c0,.21,0,.41,0,.61,0,.35-.1.69-.14,1l-.12,1.35c0,.23,0,.46,0,.68,0,.52,0,1,0,1.55A13.68,13.68,0,0,0,19.5,9c.18.92.4,1.82.56,2.73.11.57.17,1.16.24,1.73a10.42,10.42,0,0,1,0,1.58,7,7,0,0,1-.69,2.69,5.81,5.81,0,0,1-1.88,2.12,10.56,10.56,0,0,1-2.92,1.38c-.47.15-1,.28-1.41.45A9.21,9.21,0,0,0,10.9,23a4.83,4.83,0,0,0-.42.37l-.06.1Zm0-22.37-.08,0A9.45,9.45,0,0,1,7.75,2.6,5.85,5.85,0,0,1,6.25,3a8,8,0,0,1-1.47,0A12.62,12.62,0,0,1,3,2.64L1.69,2.26c-.22-.06-.26,0-.23.2.05.42.12.84.16,1.25s.09.84.12,1.25.05.7.07,1a10.85,10.85,0,0,1-.2,2.84C1.38,10,1.15,11.07.94,12.18a11.87,11.87,0,0,0-.2,1.88,8.49,8.49,0,0,0,.13,1.81,5.89,5.89,0,0,0,.65,1.86A5.76,5.76,0,0,0,3.6,19.81a10.54,10.54,0,0,0,3,1.25,10,10,0,0,1,3.54,1.79c.11.09.2.18.31.26l.2-.18a9.71,9.71,0,0,1,2.78-1.58c.45-.17.92-.29,1.37-.42a9.87,9.87,0,0,0,2.79-1.35,5.45,5.45,0,0,0,1.88-2.16,7,7,0,0,0,.62-2.8A12.47,12.47,0,0,0,19.86,12c-.15-.83-.33-1.63-.49-2.45A14.2,14.2,0,0,1,19,7.32a19.12,19.12,0,0,1,.06-2.14c0-.38.06-.76.1-1.14s.09-.74.14-1.11c0-.21,0-.42.06-.61s0-.1-.09-.09h-.08l-.8.24a12.83,12.83,0,0,1-2.88.47A5.59,5.59,0,0,1,14,2.83,8.72,8.72,0,0,1,11.25,1.7C11,1.51,10.68,1.31,10.41,1.12Z" style="fill:#fff"/><path d="M12.08,23.63a.62.62,0,0,1,.52.72.64.64,0,0,1-.52.53.63.63,0,0,1-.6-.64A.62.62,0,0,1,12.08,23.63Zm-.28.21v.83h.1v-.26c0-.08,0-.1,0-.11a.13.13,0,0,1,.16.05h0c0,.08.1.16.15.25s.08.08.16.05l-.11-.18-.1-.17h0a.23.23,0,0,0,0-.44h0A2.08,2.08,0,0,0,11.8,23.84Z" style="fill:#fff"/><path d="M10.41,1.12l.86.58A8.69,8.69,0,0,0,14,2.86,6,6,0,0,0,15.52,3a13.33,13.33,0,0,0,2.87-.47l.8-.25h.08c.06,0,.1,0,.09.09A5.73,5.73,0,0,1,19.3,3c-.05.37-.1.75-.14,1.12s-.07.75-.1,1.13A19.3,19.3,0,0,0,19,7.35a15.26,15.26,0,0,0,.37,2.23c.16.84.34,1.63.49,2.45a12.47,12.47,0,0,1,.21,2.59,7,7,0,0,1-.62,2.8,5.45,5.45,0,0,1-1.88,2.16,10.11,10.11,0,0,1-2.8,1.32c-.46.15-.93.26-1.38.42a9.69,9.69,0,0,0-2.77,1.59l-.21.19a3.88,3.88,0,0,0-.31-.26,9.79,9.79,0,0,0-3.54-1.79,11.09,11.09,0,0,1-3-1.25A5.79,5.79,0,0,1,1.5,17.72a5.86,5.86,0,0,1-.65-1.87A9.08,9.08,0,0,1,.73,14a11.86,11.86,0,0,1,.19-1.87c.22-1.12.44-2.23.67-3.33A10.85,10.85,0,0,0,1.79,6c0-.35,0-.7-.06-1s-.07-.83-.12-1.25-.11-.83-.17-1.23c0-.23,0-.27.24-.2L3,2.65a12.74,12.74,0,0,0,1.75.27,7.9,7.9,0,0,0,1.46,0,6.05,6.05,0,0,0,1.5-.35,9.75,9.75,0,0,0,2.58-1.43ZM14.3,16.76a2,2,0,0,0,.68-.39h0l0,0a.28.28,0,0,1-.14-.27V13a1.75,1.75,0,0,1,0-.4.53.53,0,0,1,0-.21,1.69,1.69,0,0,0-.55.32.41.41,0,0,0-.05.09l-.54,1.72c0,.06-.06.12-.1.2a.62.62,0,0,1-.08-.12c-.19-.33-.39-.66-.58-1,0,0-.05-.08-.11-.06a1.65,1.65,0,0,0-.55.33l.07,0a.44.44,0,0,1,.26.42c0,.62,0,1.25,0,1.86v.62a1.75,1.75,0,0,1-.12.9v.1a4.16,4.16,0,0,0,.76-.46l-.15-.14a.16.16,0,0,1,0-.08c0-.11,0-.22,0-.34V14.92s0-.05,0-.05a.06.06,0,0,1,.07,0l.11.18.28.54a.26.26,0,0,0,.18.16l.48-1.45h.05ZM3.89,14.21v-.06A1.55,1.55,0,0,1,4,12.87c0-.07,0-.13-.08-.13a.41.41,0,0,0-.19,0,.48.48,0,0,1-.48,0A1.11,1.11,0,0,0,2,14.52a2.33,2.33,0,0,0,.42.41c.18.17.38.31.57.47a1.83,1.83,0,0,1,.42.5A.92.92,0,0,1,3,17.1a.54.54,0,0,1-.33.08c-.22,0-.48-.14-.44-.48a.31.31,0,0,1,.3-.24c.08,0,.11,0,.09-.1a.39.39,0,0,0-.34-.25.62.62,0,0,0-.66.61v.12a.93.93,0,0,0,.62.75,1.27,1.27,0,0,0,1.36-.46A1.64,1.64,0,0,0,3.43,15c-.24-.18-.47-.37-.7-.56a1.5,1.5,0,0,1-.44-.56.44.44,0,0,1,0-.39.6.6,0,0,1,.65-.34.46.46,0,0,1,.44.47.5.5,0,0,1,0,.12,1.31,1.31,0,0,1-.08.21l.06,0c.13,0,.21.06.29.15a.24.24,0,0,0,.23.09Zm6.24.93,0,0h0c.18,0,.24.06.25.24,0,.52,0,1,0,1.56v1.94a.56.56,0,0,1,0,.17,2.41,2.41,0,0,0,.66-.38.06.06,0,0,0,0-.1c-.11,0-.12-.12-.11-.22a1.46,1.46,0,0,0,0-.21V17.1A.59.59,0,0,1,11,17h0s0,.06.06.09l.08.26a3.5,3.5,0,0,0,.69,1.27,1.11,1.11,0,0,0,.52.33.56.56,0,0,0,.42-.05.2.2,0,0,0,.08-.2h-.1a.6.6,0,0,1-.42-.14,1.87,1.87,0,0,1-.38-.46,3.89,3.89,0,0,1-.35-1,.34.34,0,0,1,.14-.41.86.86,0,0,0,.2-.18,1.74,1.74,0,0,0,.33-1,1,1,0,0,0-.94-.93,1.46,1.46,0,0,0-.22,0,2.68,2.68,0,0,0-.93.45.69.69,0,0,0-.13.11ZM16.86,6.8h0c.07.13.14.25.19.37.2.42.38.84.58,1.25a.77.77,0,0,0,.31.42.32.32,0,0,0,.14,0,.24.24,0,0,0,0-.12,5,5,0,0,1-.2-1.39V6.44c0-.39.07-.77.11-1.14a3,3,0,0,0,0-.9.38.38,0,0,0-.41-.34.43.43,0,0,0-.22.09.15.15,0,0,0,0,.19l0,0a.57.57,0,0,1,.11.11.19.19,0,0,1,.07.12,5.23,5.23,0,0,1,0,.56c0,.5-.05,1-.08,1.5v.1l-.09-.08c-.08-.17-.16-.33-.23-.5s-.25-.55-.37-.83c0-.12-.12-.15-.23-.08s-.3.18-.44.27a.36.36,0,0,0-.09.08l.21.09c.08,0,.14.07.14.16s0,.24,0,.36V9c0,.12,0,.24,0,.35v.1A1.31,1.31,0,0,0,17,9.08c-.15,0-.16-.16-.16-.3V7.14ZM10.13,19.29a.75.75,0,0,1-.15-.24c-.16-.64-.3-1.28-.45-1.92-.09-.42-.2-.84-.29-1.25-.05-.25-.08-.5-.13-.76l-.11.1a1.7,1.7,0,0,0-.32.71,5.67,5.67,0,0,0-.1.57c-.13.64-.26,1.27-.38,1.91S8,19.44,7.91,20a1.7,1.7,0,0,1-.3.75.37.37,0,0,0-.05.11h.07l.83-.49a.18.18,0,0,0,0-.07c-.18-.05-.22-.09-.21-.26s.09-.6.13-.9a.05.05,0,0,1,0,0l.73-.41a.11.11,0,0,1,.14,0,.09.09,0,0,1,0,.05,1.81,1.81,0,0,1,.14.95A2,2,0,0,0,10.13,19.29ZM16.2,7.92A3.71,3.71,0,0,0,16,6.64a.9.9,0,0,0-.32-.42.53.53,0,0,0-.42-.1,1,1,0,0,0-.55.33,1.59,1.59,0,0,0-.32.6,4.07,4.07,0,0,0-.2,1.77A3.33,3.33,0,0,0,14.5,10a.36.36,0,0,0,.11.16.66.66,0,0,0,.93,0l0,0a1.86,1.86,0,0,0,.31-.46A4.17,4.17,0,0,0,16.2,7.92ZM8.7,4.27a1.86,1.86,0,0,0-.81.48c.15,0,.22.1.23.22v.88A.19.19,0,0,1,8,6l-.32.19a2,2,0,0,1-.32.18c-.11,0-.08,0-.08-.06,0-.3,0-.61,0-.91a1.59,1.59,0,0,1,.06-.38,2.39,2.39,0,0,0-.79.45l.08.07a.29.29,0,0,1,.14.25c0,.38,0,.75,0,1.12s0,.92,0,1.37a1.76,1.76,0,0,1-.1.6.15.15,0,0,1,0,.08,3.2,3.2,0,0,0,.89-.52c-.22-.07-.26-.1-.27-.3,0-.41,0-.83,0-1.27a.11.11,0,0,1,.06-.11c.21-.14.41-.28.64-.42.08,0,.14,0,.14.09V7.84a1.31,1.31,0,0,1-.06.27v.08a3.23,3.23,0,0,0,.72-.42l-.09-.06a.71.71,0,0,1-.1-.14,1.5,1.5,0,0,1,0-.22V5.22a1.91,1.91,0,0,1,.12-1Zm-3.63,12c-.17,0-.23-.07-.26-.19a.5.5,0,0,1,0-.21c0-.23.08-.46.14-.68A.25.25,0,0,1,5,15l.41-.2c.15-.07.12,0,.14.06a4.27,4.27,0,0,1,.13.48.73.73,0,0,1-.07.54v0l.1,0,.62-.34c.1-.06.1-.1,0-.2a1.28,1.28,0,0,1-.11-.2c0-.11-.07-.23-.1-.34l-.75-2.77a.2.2,0,0,1,0-.11,2.58,2.58,0,0,1,0-.36l-.18.14a1.12,1.12,0,0,0-.31.51l-.63,3.52a2.86,2.86,0,0,1-.27,1l0,.1A4.22,4.22,0,0,0,5.07,16.25Zm5.61-7.79h0l-.06.08a2.9,2.9,0,0,0-.28.78c-.07.38-.14.78-.21,1.17l-.3,1.59a9.42,9.42,0,0,1-.33,1.37l-.08.22a5.78,5.78,0,0,0,1-.57h0c-.24,0-.26,0-.25-.29v0c0-.18.07-.36.09-.54a.24.24,0,0,1,.13-.21,2.86,2.86,0,0,1,.42-.24s.11,0,.14,0a1.44,1.44,0,0,1,.08.68,1.86,1.86,0,0,1,0,.28,3.24,3.24,0,0,0,.78-.47l-.1-.07a.38.38,0,0,1-.09-.13c0-.14-.08-.27-.11-.42-.15-.65-.3-1.31-.46-2a5.37,5.37,0,0,1-.2-1.12A.78.78,0,0,1,10.68,8.46Zm6.25,6.77-.06-.08a.34.34,0,0,1-.11-.25v-.77a1.78,1.78,0,0,1,.14-.75c.26-.67.51-1.35.76-2a.75.75,0,0,0,0-.42.5.5,0,0,0-.59-.39.28.28,0,0,0-.13,0s-.06.06-.07.11,0,.05,0,.06a.58.58,0,0,1,.26.6c0,.14-.06.28-.1.42-.15.42-.31.83-.47,1.27a.71.71,0,0,1-.12.18c0-.08-.08-.13-.1-.18-.1-.22-.19-.45-.31-.66a.67.67,0,0,1-.06-.46l0-.25a3.24,3.24,0,0,0-.83.47,1.37,1.37,0,0,1,.19.22c.23.44.45.9.68,1.35a.47.47,0,0,1,0,.17c0,.29,0,.57.05.86a1.65,1.65,0,0,1-.13.88.53.53,0,0,0,0,.12ZM9.43,7.42h.05l1.77-1.07a.15.15,0,0,0,.06-.09c0-.29,0-.57.07-.83v0a.22.22,0,0,0-.05.08l-.15.37a1.5,1.5,0,0,1-.71.72,1.31,1.31,0,0,1-.27.06c-.06,0-.1,0-.11-.08s0-.2-.05-.3V5.41a.29.29,0,0,1,.11-.26A.62.62,0,0,1,10.43,5c.2-.05.42-.06.6-.1a.66.66,0,0,0,.58-.66V4.1s0,0,0,0a.58.58,0,0,1-.52.38,1.35,1.35,0,0,0-.79.32L10.08,5a1.23,1.23,0,0,0,0-.13v-.7a.47.47,0,0,1,.2-.41.47.47,0,0,1,.66,0,.56.56,0,0,1,.1.15s0,0,.05.07A2.6,2.6,0,0,0,11,3.09c0-.07-.06-.06-.12,0-.49.27-1,.54-1.49.83A.9.9,0,0,0,9.21,4v0l.14,0a.27.27,0,0,1,.2.23c0,.36,0,.72,0,1.08s0,.8,0,1.21a2.44,2.44,0,0,1-.07.46,1.33,1.33,0,0,1-.1.34Zm-.72,6.75a.8.8,0,0,0,.23-.42c.09-.45.17-.9.26-1.35.13-.74.27-1.49.41-2.24.06-.28.12-.56.18-.86A2.83,2.83,0,0,0,9,9.75a1.38,1.38,0,0,1,.14.24.79.79,0,0,1,0,.43c-.07.46-.15.92-.23,1.39,0,.17-.07.34-.1.51h0a.3.3,0,0,1,0-.1c-.08-.29-.16-.59-.22-.89a2.41,2.41,0,0,1-.1-1.25,3.22,3.22,0,0,0-.87.53.54.54,0,0,1,.38.41v.05c.21.8.41,1.59.61,2.39C8.62,13.7,8.66,13.94,8.71,14.17ZM6.07,5.25l-.29.15c-.46.26-.92.52-1.37.79a.16.16,0,0,0-.07.09.45.45,0,0,0,0,.16v.77a1.24,1.24,0,0,1-.1.54v0h0a.81.81,0,0,0,.1-.09,1.17,1.17,0,0,0,.22-.54c.06-.22.12-.45.19-.67a.4.4,0,0,1,.2-.27s.08,0,.09,0a1.1,1.1,0,0,1,0,.18c0,.61,0,1.23,0,1.84V9.47a.78.78,0,0,1-.15.47l0,.08c.35-.18.69-.38,1-.59H5.83a.23.23,0,0,1-.19-.19V8.58c0-.47,0-1,0-1.43V6a.21.21,0,0,1,.1-.13s.09,0,.11,0a1.64,1.64,0,0,1,.2.26,2.64,2.64,0,0,0,.15.29,1.07,1.07,0,0,0,.18.19c0-.2-.09-.37-.12-.54s0-.38-.06-.57A1.27,1.27,0,0,1,6.07,5.25ZM13,8.79h0V8.14a4.21,4.21,0,0,0,0-.51c0-.17-.07-.18-.21-.11l-1.35.78a.25.25,0,0,0-.14.25v.91h0c0-.1.08-.2.11-.3s.07-.3.12-.45a1,1,0,0,1,.16-.24.11.11,0,0,1,.11,0s.06.06.06.09c0,.37,0,.74,0,1.12v2a1,1,0,0,1,0,.24c0,.07,0,.14,0,.23a1.9,1.9,0,0,0,.76-.42l-.16-.13a.25.25,0,0,1-.06-.14V8.36a.17.17,0,0,1,0-.1.62.62,0,0,1,.14-.19c.07,0,.14,0,.19.08a.78.78,0,0,1,.11.18,1.39,1.39,0,0,1,.06.19C12.91,8.58,12.93,8.7,13,8.79ZM6.25,11.38l.09,0a.3.3,0,0,1,.26.32v3.62l.08,0c.37-.23.74-.45,1.12-.66A.29.29,0,0,0,8,14.38c0-.22,0-.44,0-.66a3.26,3.26,0,0,1,.09-.45.31.31,0,0,0-.13.06.87.87,0,0,0-.23.47,4.58,4.58,0,0,1-.14.53.41.41,0,0,1-.22.26.15.15,0,0,1-.21,0l0-.05a3.87,3.87,0,0,1,0-.48c0-.82,0-1.63,0-2.45a1.59,1.59,0,0,1,.13-.74h0A6.25,6.25,0,0,0,6.25,11.38Zm6.92-4.12a.52.52,0,0,1,.11.1.24.24,0,0,1,.05.14c0,.47,0,.95.05,1.43s0,1,0,1.5a3,3,0,0,1,0,.59,1.81,1.81,0,0,1-.09.31h0l.73-.42c.05,0,0-.07,0-.1a.2.2,0,0,1-.12-.18c0-.34,0-.67,0-1V7.42A1.17,1.17,0,0,1,14,7a.83.83,0,0,0,0-.15h0Z" style="fill:red"/><path d="M11.8,23.84a2.62,2.62,0,0,1,.41,0,.2.2,0,0,1,.18.21h0a.21.21,0,0,1-.17.22h0l.1.17.11.18a.13.13,0,0,1-.16-.06l-.15-.25a.11.11,0,0,0-.15-.05h0s0,.07,0,.11v.26h-.1Zm.26.38h.1c.09,0,.13-.06.12-.15s0-.1-.06-.11l-.3,0a.81.81,0,0,0,0,.22s0,.05.06.06a.17.17,0,0,0,.1,0Z" style="fill:red"/><path d="M14.28,16.76V14.33h0l-.49,1.44a.24.24,0,0,1-.18-.16l-.29-.54a1.74,1.74,0,0,0-.11-.18,0,0,0,0,0-.06,0s0,0,0,.05V16.8c0,.12,0,.23,0,.34a.11.11,0,0,0,.05.08.67.67,0,0,0,.15.14,3.83,3.83,0,0,1-.75.45v-.1a2,2,0,0,0,.12-.9v-.62c0-.62,0-1.25,0-1.86a.43.43,0,0,0-.26-.42l-.06,0a1.92,1.92,0,0,1,.55-.33c.06,0,.08,0,.11.07l.58,1a.83.83,0,0,0,.08.12c0-.09.07-.15.09-.21l.49-1.72a.13.13,0,0,1,0-.09,1.47,1.47,0,0,1,.55-.33,1.12,1.12,0,0,1,0,.21,2.73,2.73,0,0,0,0,.4v3.05a.29.29,0,0,0,.14.27l0,0h0A2.16,2.16,0,0,1,14.28,16.76Z" style="fill:#fff"/><path d="M3.86,14.21a.22.22,0,0,1-.21-.09c-.08-.09-.16-.18-.3-.15s0,0-.05,0,.05-.12.08-.19a.46.46,0,0,0-.29-.57l-.13,0a.6.6,0,0,0-.65.33.39.39,0,0,0,0,.39,1.54,1.54,0,0,0,.44.57l.7.56a1.63,1.63,0,0,1,.22,2.14,1.29,1.29,0,0,1-1.37.46.94.94,0,0,1-.64-.77.65.65,0,0,1,.55-.72h.1a.42.42,0,0,1,.34.25c0,.08,0,.12-.09.1a.32.32,0,0,0-.31.25c0,.33.22.45.45.47A.53.53,0,0,0,3,17.11a.9.9,0,0,0,.34-1.19,1.36,1.36,0,0,0-.42-.5l-.57-.48A3.25,3.25,0,0,1,2,14.53,1.11,1.11,0,0,1,3.2,12.82a.48.48,0,0,0,.48,0,.41.41,0,0,1,.19,0c.09,0,.12.06.08.13a1.6,1.6,0,0,0-.1,1.3A.1.1,0,0,1,3.86,14.21Z" style="fill:#fff"/><path d="M10.11,15.14a.69.69,0,0,1,.13-.11,2.68,2.68,0,0,1,.93-.45.94.94,0,0,1,1.11.71.76.76,0,0,1,0,.21,1.74,1.74,0,0,1-.33,1,1.12,1.12,0,0,1-.2.18.35.35,0,0,0-.12.39,4.49,4.49,0,0,0,.35,1,1.71,1.71,0,0,0,.39.46.51.51,0,0,0,.41.13h.11a.18.18,0,0,1-.11.19.46.46,0,0,1-.41,0,.94.94,0,0,1-.52-.32,3.72,3.72,0,0,1-.7-1.28l-.07-.25c0-.08,0-.06-.06-.1h0a.68.68,0,0,0,0,.14v1.28c0,.07,0,.18.11.22s.07.05,0,.1a2.47,2.47,0,0,1-.67.38.52.52,0,0,1,0-.18V17c0-.52,0-1,0-1.56,0-.17-.06-.23-.24-.24h-.08ZM11,16h0v.55c0,.11,0,.14.15.14a.48.48,0,0,0,.46-.34,2.68,2.68,0,0,0,.1-.35,1.48,1.48,0,0,0,0-.86.27.27,0,0,0-.2-.19h-.25a.22.22,0,0,0-.22.22C11,15.46,11,15.74,11,16Z" style="fill:#fff"/><path d="M16.83,6.81v2c0,.14,0,.26.17.3a1.24,1.24,0,0,1-.61.39v-.1c0-.11,0-.23,0-.34V5.85c0-.13-.07-.14-.14-.17l-.21-.08.08-.08.45-.28c.15-.09.17,0,.23.08.12.28.24.56.37.84s.15.33.23.49l.06.1V6.67c0-.5.06-1,.08-1.5a5.23,5.23,0,0,0,0-.56.33.33,0,0,0-.07-.13l-.11-.11a.13.13,0,0,1,0-.18l0,0a.38.38,0,0,1,.53,0,.37.37,0,0,1,.1.22,3.31,3.31,0,0,1,0,.89c0,.38-.09.76-.12,1.14a7.06,7.06,0,0,0,0,.92,4.62,4.62,0,0,0,.21,1.38v.13l-.15,0a.93.93,0,0,1-.31-.42l-.57-1.25c-.06-.13-.13-.24-.19-.37Z" style="fill:#fff"/><path d="M10.13,19.29a1.92,1.92,0,0,1-.65.34,1.68,1.68,0,0,0-.13-.94.1.1,0,0,0-.1-.1l-.05,0c-.25.13-.49.28-.74.42a.05.05,0,0,0,0,0c0,.3-.1.59-.13.89s0,.22.2.26a.12.12,0,0,1,0,.07l-.83.49H7.56l.05-.11a1.48,1.48,0,0,0,.3-.72c.11-.51.2-1,.3-1.54s.25-1.28.37-1.92c0-.18.06-.38.11-.57a1.71,1.71,0,0,1,.32-.7l.1-.11c.05.26.09.52.14.76.09.42.2.84.29,1.25.15.65.29,1.29.44,1.93A1,1,0,0,0,10.13,19.29Zm-1.55-.81h.08l.47-.24a.15.15,0,0,0,.07-.17c-.07-.28-.13-.57-.2-.83s-.08-.27-.12-.42h0A13.32,13.32,0,0,0,8.58,18.48Z" style="fill:#fff"/><path d="M16.2,7.92a4.14,4.14,0,0,1-.34,1.73,1.79,1.79,0,0,1-.3.47.67.67,0,0,1-.94,0l0,0a1,1,0,0,1-.11-.17,3.25,3.25,0,0,1-.33-1.14A4.22,4.22,0,0,1,14.34,7a1.77,1.77,0,0,1,.32-.59,1,1,0,0,1,.55-.33.53.53,0,0,1,.42.1A.94.94,0,0,1,16,6.6,4.22,4.22,0,0,1,16.2,7.92ZM15.7,8c0-.33,0-.66-.09-1a.66.66,0,0,0-.15-.42.27.27,0,0,0-.38,0l0,0a.65.65,0,0,0-.18.36c0,.28-.08.55-.12.84a5.53,5.53,0,0,0,0,1.52,1.31,1.31,0,0,0,.21.55.22.22,0,0,0,.29.1.18.18,0,0,0,.09-.08.26.26,0,0,0,0-.15,2.25,2.25,0,0,0,.13-.42A8.47,8.47,0,0,0,15.7,8Z" style="fill:#fff"/><path d="M8.69,4.27a1.92,1.92,0,0,0-.11.92V7.33a.76.76,0,0,0,0,.21.36.36,0,0,0,.1.15l.09.06a3.75,3.75,0,0,1-.72.42.11.11,0,0,1,0-.08,2.74,2.74,0,0,0,.05-.28V6.44c0-.09-.06-.14-.14-.09s-.41.27-.64.42a.11.11,0,0,0-.06.1c0,.42,0,.83,0,1.28,0,.2,0,.23.27.29A3.18,3.18,0,0,1,6.7,9s0-.07,0-.09a2,2,0,0,0,.09-.59c0-.46,0-.92,0-1.37s0-.75,0-1.12a.29.29,0,0,0-.14-.25l-.08-.08A2.94,2.94,0,0,1,7.33,5a2.71,2.71,0,0,0-.06.38c0,.31,0,.61,0,.92,0,.06,0,.08.09,0l.32-.17L8,6a.2.2,0,0,0,.1-.18V5c0-.12-.07-.19-.22-.23A1.86,1.86,0,0,1,8.69,4.27Z" style="fill:#fff"/><path d="M5.07,16.25a4.38,4.38,0,0,1-1,.62.44.44,0,0,1,0-.1,2.86,2.86,0,0,0,.27-1c.22-1.17.42-2.35.63-3.52a1.15,1.15,0,0,1,.26-.53l.18-.14c0,.13,0,.25,0,.36a.2.2,0,0,0,0,.11l.75,2.77c0,.11.06.23.1.34a1.28,1.28,0,0,0,.11.2c.06.1.06.14,0,.2l-.62.34-.09,0v0a.78.78,0,0,0,.07-.54c0-.16-.09-.32-.14-.48s-.06-.09-.13-.06L5,15a.25.25,0,0,0-.1.15c0,.22-.1.45-.14.68a.5.5,0,0,0,0,.21A.49.49,0,0,0,5.07,16.25Zm.22-3.1h0s0,0,0,.07c-.06.36-.11.71-.16,1.07a1.67,1.67,0,0,1,0,.31h0l.37-.22a.12.12,0,0,0,0-.1l-.18-1.15Z" style="fill:#fff"/><path d="M10.68,8.46V8.6a6.12,6.12,0,0,0,.2,1.12c.16.66.31,1.32.46,2,0,.15.07.28.12.42a.35.35,0,0,0,.08.13.41.41,0,0,0,.11.07,3.08,3.08,0,0,1-.78.46,1.08,1.08,0,0,1,.05-.28,1.42,1.42,0,0,0-.09-.7c0-.08-.09,0-.14,0l-.42.24a.32.32,0,0,0-.13.22,4.85,4.85,0,0,1-.08.53v0c0,.25,0,.27.25.3h0a6.51,6.51,0,0,1-1,.56l.08-.22a8.5,8.5,0,0,0,.35-1.34l.3-1.59.21-1.17a3.17,3.17,0,0,1,.28-.78l.06-.08Zm-.35,3.09.34-.18a.18.18,0,0,0,.09-.21c0-.23-.09-.46-.13-.69s0-.23-.07-.35h0A7.69,7.69,0,0,0,10.33,11.55Z" style="fill:#fff"/><path d="M16.93,15.23l-.86.52,0-.12a1.66,1.66,0,0,0,.15-.88c0-.29,0-.58-.06-.86a.33.33,0,0,0,0-.17c-.22-.45-.44-.91-.68-1.35a1.06,1.06,0,0,0-.19-.23,4,4,0,0,1,.83-.47l-.05.26a.62.62,0,0,0,.06.46c.11.21.21.44.31.66a1.19,1.19,0,0,0,.1.18,1.88,1.88,0,0,0,.12-.18c.16-.42.32-.83.46-1.27a2.13,2.13,0,0,0,.1-.42.57.57,0,0,0-.25-.6s-.05,0-.05-.07,0-.09.07-.1a.52.52,0,0,1,.73.35.86.86,0,0,1,0,.42c-.25.68-.5,1.36-.76,2a1.76,1.76,0,0,0-.14.75v.77a.28.28,0,0,0,.11.25Z" style="fill:#fff"/><path d="M9.41,7.42a1.61,1.61,0,0,0,.1-.36,2.92,2.92,0,0,0,0-.51V5.34c0-.4,0-.72,0-1.07A.27.27,0,0,0,9.32,4L9.16,4V4l.19-.15L10.84,3c.06,0,.1,0,.12,0a3,3,0,0,1,.07.84l0-.08a.47.47,0,0,0-.61-.24.56.56,0,0,0-.15.1.49.49,0,0,0-.2.42v.69a.34.34,0,0,0,0,.13.71.71,0,0,0,.18-.12A1.5,1.5,0,0,1,11,4.44a.59.59,0,0,0,.52-.37l0,0a.24.24,0,0,1,0,.12c-.05.36-.14.57-.57.66-.2,0-.42.05-.6.1a.73.73,0,0,0-.28.17.29.29,0,0,0-.11.26v.83a1.34,1.34,0,0,0,.05.3.09.09,0,0,0,.11.09,1.34,1.34,0,0,0,.27-.07,1.51,1.51,0,0,0,.73-.66c.05-.11.1-.24.15-.36a.26.26,0,0,1,0-.09v0c0,.28,0,.57-.08.83a.14.14,0,0,1,0,.1l-1.77,1Z" style="fill:#fff"/><path d="M8.71,14.17c-.05-.24-.09-.47-.14-.7-.2-.79-.4-1.59-.61-2.38-.31-1.2,0,0,0-.05a.56.56,0,0,0-.38-.42,3.33,3.33,0,0,1,.86-.53,2.52,2.52,0,0,0,.1,1.25c.07.3.15.6.22.9l.05.09h0c0-.17.08-.34.11-.51.08-.46.16-.93.23-1.39a.86.86,0,0,0,0-.45c0-.08-.08-.16-.13-.24a2.9,2.9,0,0,1,.76-.44c-.05.3-.12.58-.17.86-.14.74-.27,1.49-.42,2.24-.08.45-.16.89-.26,1.34A.73.73,0,0,1,8.71,14.17Z" style="fill:#fff"/><path d="M6.07,5.25a1.52,1.52,0,0,0,.06.32c0,.19,0,.38.06.57a5.17,5.17,0,0,0,.11.54L6.12,6.5C6.06,6.4,6,6.3,6,6.2a1.57,1.57,0,0,0-.19-.26s-.09-.05-.12,0a.26.26,0,0,0-.1.13V7.17c0,.48,0,.95.05,1.43v.65a.26.26,0,0,0,.2.2h.1c-.33.21-.67.4-1,.58l0-.07a.73.73,0,0,0,.15-.47V8.32c0-.62,0-1.23,0-1.85a1.1,1.1,0,0,0,0-.18s0-.07-.09,0a.42.42,0,0,0-.21.26c-.06.22-.13.45-.18.67a1.14,1.14,0,0,1-.23.54s-.06.06-.09.09h0v0a1.24,1.24,0,0,0,.1-.54V6.45a.45.45,0,0,1,0-.16.15.15,0,0,1,.06-.09l1.37-.79Z" style="fill:#fff"/><path d="M13,8.79c0-.09-.07-.19-.11-.29s0-.13,0-.19-.08-.13-.12-.18-.12-.11-.18-.07a.47.47,0,0,0-.15.19.17.17,0,0,0,0,.1v3.11a.27.27,0,0,0,.07.14.67.67,0,0,0,.15.14,1.88,1.88,0,0,1-.76.41,1.57,1.57,0,0,1,0-.23,1.94,1.94,0,0,0,0-.24v-2c0-.38,0-.75,0-1.12a.11.11,0,0,0-.06-.09.12.12,0,0,0-.11,0,1,1,0,0,0-.15.25c-.06.14-.08.3-.13.45a2,2,0,0,1-.11.3h0a0,0,0,0,1,0,0V8.53a.24.24,0,0,1,.14-.25l1.34-.77c.14-.08.2-.06.22.1s0,.34,0,.51,0,.37,0,.55v.1Z" style="fill:#fff"/><path d="M6.25,11.38a5.6,5.6,0,0,1,.94-.57h0a1.52,1.52,0,0,0-.11.76c0,.82,0,1.63,0,2.45a2.61,2.61,0,0,0,.05.48.16.16,0,0,0,.18.12l.06,0a.47.47,0,0,0,.22-.26c0-.17.09-.35.13-.53A1.05,1.05,0,0,1,8,13.33a.35.35,0,0,1,.14-.06c0,.15-.07.3-.1.45s0,.45,0,.67a.28.28,0,0,1-.16.28c-.37.21-.74.41-1.12.65l-.07,0V11.72a.3.3,0,0,0-.26-.32Z" style="fill:#fff"/><path d="M13.16,7.26,14,6.78h0a.83.83,0,0,1,0,.15,1.21,1.21,0,0,0-.08.46v2.2c0,.33,0,.67,0,1a.24.24,0,0,0,.13.18s0,.07,0,.1c-.24.14-.49.29-.74.41h0a2.81,2.81,0,0,0,.1-.31,5.28,5.28,0,0,0,0-.56c0-.5,0-1,0-1.5s0-1-.06-1.42a.21.21,0,0,0-.07-.13A.52.52,0,0,0,13.16,7.26Z" style="fill:#fff"/><path d="M12.08,24.22a.17.17,0,0,1-.1,0,.07.07,0,0,1-.06-.06.81.81,0,0,1,0-.22,1.51,1.51,0,0,1,.3,0s.06.07.06.11a.13.13,0,0,1-.12.14Z" style="fill:#fff"/><path d="M11,16v-.83a.22.22,0,0,1,.22-.22h.25a.28.28,0,0,1,.21.18,1.52,1.52,0,0,1,0,.87,2.58,2.58,0,0,1-.09.35.49.49,0,0,1-.46.34c-.12,0-.15,0-.15-.14V16Z" style="fill:red"/><path d="M8.58,18.48a13,13,0,0,1,.26-1.66h0l.12.41c.07.29.13.57.2.84a.15.15,0,0,1-.07.17l-.47.24Z" style="fill:red"/><path d="M15.7,8a8.58,8.58,0,0,1-.14,1.34c0,.14-.08.28-.13.41a.36.36,0,0,1-.08.12.22.22,0,0,1-.3.07A.16.16,0,0,1,15,9.85a1.19,1.19,0,0,1-.21-.55,4.85,4.85,0,0,1,0-1.52c0-.28.07-.56.11-.83A.66.66,0,0,1,15,6.58a.27.27,0,0,1,.38,0l0,0A.73.73,0,0,1,15.6,7C15.65,7.35,15.67,7.67,15.7,8Z" style="fill:red"/><path d="M5.29,13.13l.18,1.14a.14.14,0,0,1,0,.1l-.37.21H5a1.62,1.62,0,0,1,0-.31c.05-.35.1-.71.16-1.07,0,0,0,0,0-.06Z" style="fill:red"/><path d="M10.33,11.55a7.69,7.69,0,0,1,.2-1.43h0c0,.11,0,.23.07.35s.08.46.13.69a.18.18,0,0,1-.09.21Z" style="fill:red"/></g></svg>